<?xml version="1.0" encoding="UTF-8"?>
<!DOCTYPE svg PUBLIC "-//W3C//DTD SVG 1.1//EN" "http://www.w3.org/Graphics/SVG/1.1/DTD/svg11.dtd">
<svg xmlns="http://www.w3.org/2000/svg" version="1.1" width="512px" height="512px" style="shape-rendering:geometricPrecision; text-rendering:geometricPrecision; image-rendering:optimizeQuality; fill-rule:evenodd; clip-rule:evenodd" xmlns:xlink="http://www.w3.org/1999/xlink">
<g><path style="opacity:0.931" fill="#000000" d="M 372.5,29.5 C 404.254,29.0149 435.921,29.5149 467.5,31C 486.01,55.6456 487.177,81.1456 471,107.5C 469.127,109.709 466.96,111.542 464.5,113C 433.414,113.984 402.414,113.651 371.5,112C 355.993,93.4448 352.16,72.6115 360,49.5C 362.913,41.9969 367.08,35.3303 372.5,29.5 Z M 379.5,43.5 C 405.502,43.3334 431.502,43.5 457.5,44C 469.043,61.6363 469.376,79.4697 458.5,97.5C 432.173,98.6665 405.84,98.8332 379.5,98C 367.522,79.8337 367.522,61.6671 379.5,43.5 Z"/></g>
<g><path style="opacity:0.92" fill="#000000" d="M 191.5,56.5 C 197.011,56.2049 202.344,57.0382 207.5,59C 222.573,68.3987 237.907,77.3987 253.5,86C 256.097,88.3167 256.93,91.15 256,94.5C 250.461,105.083 244.295,115.249 237.5,125C 234.97,126.422 232.303,126.755 229.5,126C 225.25,123.626 221.084,121.126 217,118.5C 217.962,132.426 223.296,144.426 233,154.5C 234.195,163.659 230.362,166.826 221.5,164C 214.458,157.419 209.291,149.585 206,140.5C 203.686,133.909 201.686,127.242 200,120.5C 197.667,122.833 195.333,125.167 193,127.5C 194.198,133.993 193.531,140.326 191,146.5C 186.5,154.167 182,161.833 177.5,169.5C 180.819,184.26 183.819,199.094 186.5,214C 186.042,218.248 185.209,222.415 184,226.5C 170,249.833 156,273.167 142,296.5C 134.639,304.173 125.806,306.673 115.5,304C 89.9261,289.43 64.5927,274.43 39.5,259C 31.3924,251.932 28.5591,243.098 31,232.5C 45.2321,207.035 60.2321,182.035 76,157.5C 78.0739,155.548 80.2406,153.715 82.5,152C 94.7109,145.728 107.044,139.728 119.5,134C 125.167,125.667 130.833,117.333 136.5,109C 141.928,104.301 148.262,101.967 155.5,102C 150.503,98.1661 145.17,94.8328 139.5,92C 137.607,89.0828 137.107,85.9162 138,82.5C 139.97,79.0319 142.136,75.6985 144.5,72.5C 160.093,66.7471 175.76,61.4138 191.5,56.5 Z M 192.5,71.5 C 195.649,71.2114 198.649,71.7114 201.5,73C 213.633,80.3021 225.633,87.8021 237.5,95.5C 234.5,100.167 231.5,104.833 228.5,109.5C 221.402,104.953 214.068,100.953 206.5,97.5C 204.701,97.577 203.034,98.077 201.5,99C 195.333,105.167 189.167,111.333 183,117.5C 178.753,114.292 174.253,111.458 169.5,109C 173.518,105.057 174.351,100.557 172,95.5C 166.167,91.6667 160.333,87.8333 154.5,84C 167.374,80.0971 180.041,75.9304 192.5,71.5 Z M 148.5,118.5 C 150.857,118.337 153.19,118.503 155.5,119C 162.762,122.879 169.595,127.379 176,132.5C 176.601,134.137 177.101,135.803 177.5,137.5C 173.188,146.123 168.354,154.457 163,162.5C 162.015,164.366 161.515,166.366 161.5,168.5C 163.678,181.891 166.178,195.224 169,208.5C 169.667,212.5 169.667,216.5 169,220.5C 168.692,221.308 168.192,221.975 167.5,222.5C 161.306,217.806 154.972,213.306 148.5,209C 130.07,200.118 111.403,191.784 92.5,184C 88.5691,181.868 85.2358,179.035 82.5,175.5C 84.9383,171.558 87.9383,168.058 91.5,165C 104.167,159 116.833,153 129.5,147C 134.667,138.5 139.833,130 145,121.5C 146.145,120.364 147.312,119.364 148.5,118.5 Z M 74.5,188.5 C 80.8107,193.959 87.8107,198.459 95.5,202C 110.989,207.163 125.989,213.497 140.5,221C 147.524,225.513 154.191,230.513 160.5,236C 149.5,253.667 138.5,271.333 127.5,289C 124.258,291.325 120.924,291.658 117.5,290C 93.4128,275.208 69.5795,260.041 46,244.5C 44.7496,241.923 44.4163,239.257 45,236.5C 55.0585,220.615 64.8918,204.615 74.5,188.5 Z"/></g>
<g><path style="opacity:0.912" fill="#000000" d="M 264.5,99.5 C 272.041,99.6748 279.374,101.008 286.5,103.5C 291.922,111.3 289.922,116.134 280.5,118C 284.02,126.515 281.02,130.848 271.5,131C 275.964,137.918 274.13,142.418 266,144.5C 264.601,143.773 263.101,143.273 261.5,143C 257.667,138.5 253.833,134 250,129.5C 248.902,125.495 249.735,121.995 252.5,119C 253.448,118.517 254.448,118.351 255.5,118.5C 254.549,113.228 256.549,109.728 261.5,108C 260.483,106.951 260.316,105.784 261,104.5C 261.997,102.677 263.164,101.01 264.5,99.5 Z"/></g>
<g><path style="opacity:0.89" fill="#000000" d="M 297.5,107.5 C 305.782,108.07 313.782,109.904 321.5,113C 325.393,119.672 323.726,124.172 316.5,126.5C 309.933,124.358 303.266,122.525 296.5,121C 293.606,118.091 292.773,114.591 294,110.5C 295.145,109.364 296.312,108.364 297.5,107.5 Z"/></g>
<g><path style="opacity:0.891" fill="#000000" d="M 285.5,125.5 C 288.187,125.336 290.854,125.503 293.5,126C 298.298,128.635 302.965,131.468 307.5,134.5C 312.128,141.589 310.295,146.255 302,148.5C 295.346,145.006 289.012,141.006 283,136.5C 281.813,132.217 282.647,128.55 285.5,125.5 Z"/></g>
<g><path style="opacity:0.934" fill="#000000" d="M 416.5,130.5 C 432.542,126.667 444.709,131.667 453,145.5C 454.471,151.431 454.804,157.431 454,163.5C 430.333,244.167 406.667,324.833 383,405.5C 382.667,429.5 382.333,453.5 382,477.5C 381.535,478.931 380.701,480.097 379.5,481C 266.833,481.667 154.167,481.667 41.5,481C 40.6667,480.167 39.8333,479.333 39,478.5C 35.1594,451.606 31.826,424.606 29,397.5C 27.6332,371.719 38.7998,353.886 62.5,344C 70.6888,341.655 79.0221,340.989 87.5,342C 153.071,355.047 218.571,368.214 284,381.5C 286.111,379.898 287.611,377.898 288.5,375.5C 279.381,347.927 279.215,320.26 288,292.5C 291.409,281.27 295.409,270.27 300,259.5C 315.81,228.401 329.476,196.401 341,163.5C 347.346,150.822 357.18,141.989 370.5,137C 385.86,134.103 401.194,131.936 416.5,130.5 Z M 424.5,144.5 C 435.37,143.868 440.204,148.868 439,159.5C 419.333,228.167 399.667,296.833 380,365.5C 366.46,343.764 347.96,337.93 324.5,348C 317.025,353.308 309.692,358.808 302.5,364.5C 298.732,355.056 297.065,345.223 297.5,335C 298.156,313.208 302.99,292.375 312,272.5C 321.473,251.083 331.139,229.749 341,208.5C 346.333,194.5 351.667,180.5 357,166.5C 362.273,157.948 369.773,152.448 379.5,150C 394.632,148.129 409.632,146.295 424.5,144.5 Z M 75.5,355.5 C 85.5951,356.285 95.5951,357.785 105.5,360C 160.888,370.978 216.221,382.144 271.5,393.5C 254.067,412.78 239.567,434.113 228,457.5C 227.502,460.482 227.335,463.482 227.5,466.5C 169.167,466.5 110.833,466.5 52.5,466.5C 50.0375,444.504 47.5375,422.504 45,400.5C 42.2639,376.614 52.4305,361.614 75.5,355.5 Z M 340.5,357.5 C 354.169,357.338 363.335,363.671 368,376.5C 369.444,406.801 369.944,437.134 369.5,467.5C 327.499,467.667 285.499,467.5 243.5,467C 242.426,466.261 241.759,465.261 241.5,464C 263.261,422.566 293.261,388.232 331.5,361C 334.571,359.704 337.571,358.538 340.5,357.5 Z M 320.5,413.5 C 333.645,413.81 340.145,420.477 340,433.5C 335.297,445.961 326.797,449.461 314.5,444C 305.96,435.933 305.293,427.266 312.5,418C 315.099,416.205 317.766,414.705 320.5,413.5 Z"/></g>
<g><path style="opacity:0.883" fill="#000000" d="M 275.5,143.5 C 278.32,143.248 280.986,143.748 283.5,145C 289.395,150.163 294.061,156.163 297.5,163C 297.009,167.755 294.342,169.922 289.5,169.5C 287.366,169.485 285.366,168.985 283.5,168C 280,163.833 276.5,159.667 273,155.5C 270.696,150.855 271.529,146.855 275.5,143.5 Z"/></g>
<g><path style="opacity:0.924" fill="#000000" d="M 315.5,399.5 C 334.791,396.665 347.624,404.331 354,422.5C 356.72,445.427 346.72,458.427 324,461.5C 302.062,458.895 291.728,446.561 293,424.5C 295.81,411.861 303.31,403.527 315.5,399.5 Z M 320.5,413.5 C 317.766,414.705 315.099,416.205 312.5,418C 305.293,427.266 305.96,435.933 314.5,444C 326.797,449.461 335.297,445.961 340,433.5C 340.145,420.477 333.645,413.81 320.5,413.5 Z"/></g>
</svg>
