<?xml version="1.0" encoding="UTF-8"?>
<!DOCTYPE svg PUBLIC "-//W3C//DTD SVG 1.1//EN" "http://www.w3.org/Graphics/SVG/1.1/DTD/svg11.dtd">
<svg xmlns="http://www.w3.org/2000/svg" version="1.1" width="512px" height="512px" style="shape-rendering:geometricPrecision; text-rendering:geometricPrecision; image-rendering:optimizeQuality; fill-rule:evenodd; clip-rule:evenodd" xmlns:xlink="http://www.w3.org/1999/xlink">
<g><path style="opacity:0.919" fill="#000000" d="M 320.5,29.5 C 325.913,29.2288 331.246,29.7288 336.5,31C 348.771,35.2016 361.105,39.2016 373.5,43C 376.123,46.412 378.623,49.912 381,53.5C 382.098,57.5052 381.265,61.0052 378.5,64C 373.999,66.4159 369.666,69.0825 365.5,72C 370.925,71.8219 375.925,73.1553 380.5,76C 386.747,84.4924 392.747,93.1591 398.5,102C 409.622,107.061 420.622,112.394 431.5,118C 434.63,120.128 437.463,122.628 440,125.5C 453.667,146.5 467.333,167.5 481,188.5C 484.359,198.744 482.193,207.577 474.5,215C 451.667,229.251 428.667,243.251 405.5,257C 396.166,260.017 387.666,258.517 380,252.5C 366.082,230.334 352.416,208 339,185.5C 337.516,179.235 337.182,172.902 338,166.5C 340.061,155.132 342.228,143.799 344.5,132.5C 339.749,125.334 335.249,118 331,110.5C 329.336,105.208 329.003,99.8742 330,94.5C 328,92.5 326,90.5 324,88.5C 321.479,101.073 316.812,112.739 310,123.5C 307.455,127.059 304.121,129.392 300,130.5C 293.357,130.19 291.024,126.857 293,120.5C 301.546,111.077 306.546,100.077 308,87.5C 304.095,90.3977 299.929,92.8977 295.5,95C 293.029,95.7063 290.695,95.373 288.5,94C 282.623,85.0819 277.123,75.9153 272,66.5C 270.621,60.5332 272.788,56.3666 278.5,54C 292.431,45.5407 306.431,37.3741 320.5,29.5 Z M 325.5,42.5 C 339.251,45.3616 352.584,49.5283 365.5,55C 360.584,57.7072 355.751,60.5406 351,63.5C 348.236,67.681 348.403,71.8477 351.5,76C 348.226,79.3081 344.559,82.1414 340.5,84.5C 334.649,79.4828 329.316,73.9828 324.5,68C 321.454,65.826 318.12,65.1593 314.5,66C 309,69.5 303.5,73 298,76.5C 295.626,72.2505 293.126,68.0838 290.5,64C 302.263,56.795 313.93,49.6284 325.5,42.5 Z M 363.5,86.5 C 367.287,85.8144 370.454,86.8144 373,89.5C 377.772,97.9337 382.938,106.1 388.5,114C 400.586,119.474 412.586,125.14 424.5,131C 427.07,133.067 429.07,135.567 430.5,138.5C 426.956,142.207 422.956,145.374 418.5,148C 402.588,154.082 386.921,160.749 371.5,168C 365.028,172.306 358.694,176.806 352.5,181.5C 351.343,178.216 351.176,174.882 352,171.5C 354.373,158.637 356.873,145.804 359.5,133C 354.354,123.208 349.354,113.374 344.5,103.5C 344.486,101.407 345.152,99.5741 346.5,98C 352.344,94.3037 358.011,90.4703 363.5,86.5 Z M 438.5,153.5 C 439.675,153.281 440.675,153.614 441.5,154.5C 449.416,168 457.582,181.334 466,194.5C 466.817,197.964 466.483,201.298 465,204.5C 442.659,219.083 419.826,232.75 396.5,245.5C 394.701,245.423 393.034,244.923 391.5,244C 381.25,228.168 371.25,212.168 361.5,196C 370.814,187.034 381.48,180.034 393.5,175C 406.154,170.782 418.487,165.782 430.5,160C 433.42,158.054 436.087,155.887 438.5,153.5 Z"/></g>
<g><path style="opacity:0.92" fill="#000000" d="M 258.5,69.5 C 265.042,68.8746 268.209,71.8746 268,78.5C 271.828,80.3289 274.161,83.3289 275,87.5C 279.626,90.5877 280.626,94.5877 278,99.5C 274.869,103.633 271.369,107.466 267.5,111C 258.207,113.366 254.54,110.033 256.5,101C 248.49,99.6091 246.157,95.2758 249.5,88C 243.525,88.1876 240.192,85.3542 239.5,79.5C 239.848,77.3033 240.848,75.47 242.5,74C 247.894,72.2967 253.227,70.7967 258.5,69.5 Z"/></g>
<g><path style="opacity:0.89" fill="#000000" d="M 227.5,76.5 C 235.813,76.3124 239.313,80.3124 238,88.5C 234.519,91.7544 230.352,93.5877 225.5,94C 220.776,95.7301 216.11,95.7301 211.5,94C 207.214,88.9057 207.88,84.5723 213.5,81C 218.38,79.7878 223.047,78.2878 227.5,76.5 Z"/></g>
<g><path style="opacity:0.89" fill="#000000" d="M 237.5,93.5 C 246.508,93.5066 249.675,97.8399 247,106.5C 241.409,110.627 235.409,113.961 229,116.5C 222.115,115.262 219.782,111.262 222,104.5C 227.146,100.689 232.312,97.0219 237.5,93.5 Z"/></g>
<g><path style="opacity:0.89" fill="#000000" d="M 249.5,109.5 C 257.364,110.17 260.197,114.17 258,121.5C 254.201,126.301 250.034,130.801 245.5,135C 236.736,137.56 232.902,134.393 234,125.5C 238.753,119.583 243.92,114.25 249.5,109.5 Z"/></g>
<g><path style="opacity:0.933" fill="#000000" d="M 169.5,184.5 C 209.501,184.333 249.501,184.5 289.5,185C 298.546,187.511 307.546,190.178 316.5,193C 318.667,193.833 320.167,195.333 321,197.5C 321.667,206.167 321.667,214.833 321,223.5C 320.535,224.931 319.701,226.097 318.5,227C 300.503,227.5 282.503,227.667 264.5,227.5C 264.5,233.167 264.5,238.833 264.5,244.5C 278.504,244.333 292.504,244.5 306.5,245C 307.5,245.5 308.5,246 309.5,246.5C 315.996,259.825 321.663,273.492 326.5,287.5C 336.172,287.334 345.839,287.5 355.5,288C 356.701,288.903 357.535,290.069 358,291.5C 358.5,299.827 358.666,308.16 358.5,316.5C 365.5,316.5 372.5,316.5 379.5,316.5C 379.334,310.158 379.5,303.825 380,297.5C 380.295,295.069 381.462,293.236 383.5,292C 399.167,291.333 414.833,291.333 430.5,292C 431.308,292.308 431.975,292.808 432.5,293.5C 437.611,306.056 442.444,318.723 447,331.5C 447.667,367.5 447.667,403.5 447,439.5C 440.279,453.109 433.446,466.609 426.5,480C 419.434,481.132 412.267,481.632 405,481.5C 397.733,481.632 390.566,481.132 383.5,480C 382.299,479.097 381.465,477.931 381,476.5C 380.5,464.171 380.333,451.838 380.5,439.5C 371.167,439.5 361.833,439.5 352.5,439.5C 352.667,452.504 352.5,465.504 352,478.5C 350.829,479.893 349.329,480.727 347.5,481C 294.833,481.667 242.167,481.667 189.5,481C 187.919,480.293 186.419,479.46 185,478.5C 174.189,465.055 163.023,451.888 151.5,439C 104.875,445.206 85.5416,425.039 93.5,378.5C 89.8333,378.5 86.1667,378.5 82.5,378.5C 82.6666,394.503 82.4999,410.503 82,426.5C 80.6811,428.487 78.8477,429.654 76.5,430C 66.7722,430.891 57.1055,430.557 47.5,429C 46.2986,428.097 45.4652,426.931 45,425.5C 44.5,401.169 44.3334,376.836 44.5,352.5C 36.9393,352.44 32.1059,348.774 30,341.5C 29.3333,319.167 29.3333,296.833 30,274.5C 31.0901,268.412 34.5901,264.579 40.5,263C 53.1667,262.333 65.8333,262.333 78.5,263C 79.4162,263.374 80.2496,263.874 81,264.5C 82.4736,282.74 82.9736,301.073 82.5,319.5C 86.1667,319.5 89.8333,319.5 93.5,319.5C 91.9337,306.875 94.4337,295.209 101,284.5C 110.059,275.854 120.892,272.354 133.5,274C 139.101,263.408 145.101,253.074 151.5,243C 165.736,241.534 180.069,241.034 194.5,241.5C 194.5,236.833 194.5,232.167 194.5,227.5C 176.497,227.667 158.497,227.5 140.5,227C 140,226.5 139.5,226 139,225.5C 137.886,220.609 137.386,215.609 137.5,210.5C 137.386,205.391 137.886,200.391 139,195.5C 139.903,194.299 141.069,193.465 142.5,193C 151.666,190.299 160.666,187.466 169.5,184.5 Z M 182.5,197.5 C 213.833,197.5 245.167,197.5 276.5,197.5C 276.5,202.833 276.5,208.167 276.5,213.5C 245.167,213.5 213.833,213.5 182.5,213.5C 182.5,208.167 182.5,202.833 182.5,197.5 Z M 290.5,200.5 C 295.419,202.148 300.419,203.648 305.5,205C 306.444,207.719 306.777,210.552 306.5,213.5C 301.167,213.5 295.833,213.5 290.5,213.5C 290.5,209.167 290.5,204.833 290.5,200.5 Z M 163.5,201.5 C 164.833,201.5 166.167,201.5 167.5,201.5C 167.5,205.5 167.5,209.5 167.5,213.5C 162.167,213.5 156.833,213.5 151.5,213.5C 151.187,210.753 151.52,208.086 152.5,205.5C 156.332,204.304 159.999,202.97 163.5,201.5 Z M 207.5,227.5 C 221.167,227.5 234.833,227.5 248.5,227.5C 248.334,236.506 248.5,245.506 249,254.5C 249.465,255.931 250.299,257.097 251.5,258C 267.408,259.304 283.408,259.97 299.5,260C 304.972,273.415 310.638,286.748 316.5,300C 325.392,301.443 334.392,301.943 343.5,301.5C 343.334,309.84 343.5,318.173 344,326.5C 344.935,329.102 346.768,330.602 349.5,331C 363.569,331.947 377.569,331.614 391.5,330C 392.333,329.167 393.167,328.333 394,327.5C 394.5,320.174 394.666,312.841 394.5,305.5C 403.751,305.182 412.917,305.515 422,306.5C 425.137,315.577 428.47,324.577 432,333.5C 432.667,367.833 432.667,402.167 432,436.5C 427.167,446.167 422.333,455.833 417.5,465.5C 409.862,466.497 402.196,466.831 394.5,466.5C 394.667,453.829 394.5,441.162 394,428.5C 393.167,427.667 392.333,426.833 391.5,426C 374.5,425.333 357.5,425.333 340.5,426C 340,426.5 339.5,427 339,427.5C 337.538,440.401 337.038,453.401 337.5,466.5C 289.495,466.833 241.495,466.5 193.5,465.5C 182.394,451.557 170.727,438.057 158.5,425C 145.595,423.704 132.595,423.037 119.5,423C 113.443,420.381 109.61,415.881 108,409.5C 107.333,373.833 107.333,338.167 108,302.5C 109.833,295.333 114.333,290.833 121.5,289C 127.833,288.667 134.167,288.333 140.5,288C 147.462,277.915 153.795,267.415 159.5,256.5C 174.489,255.667 189.489,255.167 204.5,255C 205.701,254.097 206.535,252.931 207,251.5C 207.5,243.507 207.666,235.507 207.5,227.5 Z M 44.5,278.5 C 52.1667,278.5 59.8333,278.5 67.5,278.5C 67.5,324.5 67.5,370.5 67.5,416.5C 64.8333,416.5 62.1667,416.5 59.5,416.5C 59.6666,394.497 59.5,372.497 59,350.5C 56.6824,343.584 51.8491,339.918 44.5,339.5C 44.5,319.167 44.5,298.833 44.5,278.5 Z M 196.5,309.5 C 198.456,312.537 200.789,315.371 203.5,318C 207.136,319.268 210.803,320.434 214.5,321.5C 217.444,320.125 220.444,319.292 223.5,319C 220.428,325.922 221.261,332.422 226,338.5C 228.525,340.675 231.358,342.342 234.5,343.5C 231.404,345.131 228.57,347.131 226,349.5C 224.527,353.417 223.361,357.417 222.5,361.5C 222.805,364.276 223.805,366.776 225.5,369C 221.688,367.694 217.688,367.361 213.5,368C 210.006,369.579 206.673,371.413 203.5,373.5C 202.499,376.172 201.499,378.839 200.5,381.5C 199.113,378.508 197.446,375.675 195.5,373C 191.294,371.32 186.961,370.153 182.5,369.5C 179.953,369.442 177.62,370.109 175.5,371.5C 175.167,371.167 174.833,370.833 174.5,370.5C 177.554,363.71 176.721,357.377 172,351.5C 169.475,349.325 166.642,347.658 163.5,346.5C 165.336,345.081 167.336,343.914 169.5,343C 174.936,336.278 175.936,329.111 172.5,321.5C 173.79,320.592 175.123,320.759 176.5,322C 182.693,322.419 188.359,320.753 193.5,317C 194.991,314.692 195.991,312.192 196.5,309.5 Z M 82.5,334.5 C 86.1667,334.5 89.8333,334.5 93.5,334.5C 93.5,344.5 93.5,354.5 93.5,364.5C 89.8333,364.5 86.1667,364.5 82.5,364.5C 82.5,354.5 82.5,344.5 82.5,334.5 Z M 285.5,361.5 C 287.41,362.975 288.576,364.975 289,367.5C 293.424,370.367 298.257,372.367 303.5,373.5C 306.41,372.027 309.41,371.194 312.5,371C 310.427,373.879 309.593,377.046 310,380.5C 311.833,384.167 313.667,387.833 315.5,391.5C 318.115,392.762 320.782,393.928 323.5,395C 320.911,396.197 318.244,397.197 315.5,398C 313.243,402.436 311.577,407.102 310.5,412C 311.077,414.657 312.077,417.157 313.5,419.5C 313.167,419.833 312.833,420.167 312.5,420.5C 305.71,417.446 299.377,418.279 293.5,423C 291.187,425.425 289.52,428.258 288.5,431.5C 287.376,429.631 286.543,427.631 286,425.5C 279.075,420.397 271.575,418.897 263.5,421C 264.561,419.151 265.227,417.151 265.5,415C 264.086,410.67 262.253,406.503 260,402.5C 257.427,400.694 254.593,399.36 251.5,398.5C 259.655,395.881 263.655,390.214 263.5,381.5C 263.519,378.812 262.852,376.312 261.5,374C 262.577,372.457 263.911,372.457 265.5,374C 271.693,374.419 277.359,372.753 282.5,369C 283.601,366.528 284.601,364.028 285.5,361.5 Z"/></g>
<g><path style="opacity:0.918" fill="#000000" d="M 190.5,295.5 C 195.913,295.229 201.246,295.729 206.5,297C 208.712,299.921 210.545,303.088 212,306.5C 212.561,307.022 213.228,307.355 214,307.5C 217,306.167 220,304.833 223,303.5C 228.529,306.351 233.529,310.017 238,314.5C 238.561,319.435 237.894,324.102 236,328.5C 239.216,329.462 242.382,330.628 245.5,332C 248.173,338.555 249.007,345.388 248,352.5C 247.626,353.416 247.126,354.25 246.5,355C 243.13,356.346 240.13,358.179 237.5,360.5C 241.546,364.995 242.38,369.995 240,375.5C 237.167,378.333 234.333,381.167 231.5,384C 226.976,384.925 222.809,384.092 219,381.5C 216.872,385.874 214.372,390.04 211.5,394C 205.835,394.801 200.168,395.134 194.5,395C 193.069,394.535 191.903,393.701 191,392.5C 189.822,389.467 188.156,386.801 186,384.5C 183.44,385.53 180.94,386.697 178.5,388C 176.5,388.667 174.5,388.667 172.5,388C 168.367,384.869 164.534,381.369 161,377.5C 160.333,375.167 160.333,372.833 161,370.5C 162.301,368.598 162.968,366.598 163,364.5C 158.684,362.726 154.684,360.393 151,357.5C 150.72,352.803 150.22,348.137 149.5,343.5C 149.899,341.803 150.399,340.137 151,338.5C 154.353,336.093 157.52,333.593 160.5,331C 159.722,328.61 158.555,326.443 157,324.5C 156.245,321.697 156.578,319.03 158,316.5C 161.554,312.946 165.054,309.446 168.5,306C 172.889,306.364 177.222,307.031 181.5,308C 182.741,304.876 183.908,301.709 185,298.5C 186.719,297.131 188.552,296.131 190.5,295.5 Z M 196.5,309.5 C 195.991,312.192 194.991,314.692 193.5,317C 188.359,320.753 182.693,322.419 176.5,322C 175.123,320.759 173.79,320.592 172.5,321.5C 175.936,329.111 174.936,336.278 169.5,343C 167.336,343.914 165.336,345.081 163.5,346.5C 166.642,347.658 169.475,349.325 172,351.5C 176.721,357.377 177.554,363.71 174.5,370.5C 174.833,370.833 175.167,371.167 175.5,371.5C 177.62,370.109 179.953,369.442 182.5,369.5C 186.961,370.153 191.294,371.32 195.5,373C 197.446,375.675 199.113,378.508 200.5,381.5C 201.499,378.839 202.499,376.172 203.5,373.5C 206.673,371.413 210.006,369.579 213.5,368C 217.688,367.361 221.688,367.694 225.5,369C 223.805,366.776 222.805,364.276 222.5,361.5C 223.361,357.417 224.527,353.417 226,349.5C 228.57,347.131 231.404,345.131 234.5,343.5C 231.358,342.342 228.525,340.675 226,338.5C 221.261,332.422 220.428,325.922 223.5,319C 220.444,319.292 217.444,320.125 214.5,321.5C 210.803,320.434 207.136,319.268 203.5,318C 200.789,315.371 198.456,312.537 196.5,309.5 Z"/></g>
<g><path style="opacity:0.843" fill="#000000" d="M 194.5,338.5 C 205.472,337.968 208.472,342.468 203.5,352C 196.445,355.139 192.112,352.973 190.5,345.5C 191.071,342.687 192.404,340.354 194.5,338.5 Z"/></g>
<g><path style="opacity:0.918" fill="#000000" d="M 281.5,346.5 C 286.297,346.121 290.964,346.621 295.5,348C 297.792,351.416 299.959,354.916 302,358.5C 306.921,354.089 312.088,353.589 317.5,357C 320.333,359.833 323.167,362.667 326,365.5C 326.925,370.024 326.092,374.191 323.5,378C 327.874,380.128 332.04,382.628 336,385.5C 336.368,389.85 336.868,394.183 337.5,398.5C 337.423,400.299 336.923,401.966 336,403.5C 333.016,406.034 329.849,408.201 326.5,410C 327.53,412.56 328.697,415.06 330,417.5C 330.667,419.5 330.667,421.5 330,423.5C 326.257,428.746 321.757,433.079 316.5,436.5C 312.9,435.012 309.233,434.179 305.5,434C 304.318,437.398 302.984,440.731 301.5,444C 294.563,446.529 287.563,446.862 280.5,445C 278.521,441.528 276.188,438.362 273.5,435.5C 269.792,439.005 265.459,440.172 260.5,439C 256.367,435.869 252.534,432.369 249,428.5C 248.263,424.201 249.097,420.201 251.5,416.5C 251.023,415.522 250.357,414.689 249.5,414C 245.131,413.666 241.631,411.833 239,408.5C 238.779,403.78 238.279,399.113 237.5,394.5C 238.464,388.87 241.797,385.536 247.5,384.5C 247.833,383.833 248.167,383.167 248.5,382.5C 247.863,379.893 246.696,377.56 245,375.5C 244.245,372.697 244.578,370.03 246,367.5C 249.5,364 253,360.5 256.5,357C 260.899,357.373 265.232,358.039 269.5,359C 270.732,355.81 272.065,352.643 273.5,349.5C 276.092,348.083 278.759,347.083 281.5,346.5 Z M 285.5,361.5 C 284.601,364.028 283.601,366.528 282.5,369C 277.359,372.753 271.693,374.419 265.5,374C 263.911,372.457 262.577,372.457 261.5,374C 262.852,376.312 263.519,378.812 263.5,381.5C 263.655,390.214 259.655,395.881 251.5,398.5C 254.593,399.36 257.427,400.694 260,402.5C 262.253,406.503 264.086,410.67 265.5,415C 265.227,417.151 264.561,419.151 263.5,421C 271.575,418.897 279.075,420.397 286,425.5C 286.543,427.631 287.376,429.631 288.5,431.5C 289.52,428.258 291.187,425.425 293.5,423C 299.377,418.279 305.71,417.446 312.5,420.5C 312.833,420.167 313.167,419.833 313.5,419.5C 312.077,417.157 311.077,414.657 310.5,412C 311.577,407.102 313.243,402.436 315.5,398C 318.244,397.197 320.911,396.197 323.5,395C 320.782,393.928 318.115,392.762 315.5,391.5C 313.667,387.833 311.833,384.167 310,380.5C 309.593,377.046 310.427,373.879 312.5,371C 309.41,371.194 306.41,372.027 303.5,373.5C 298.257,372.367 293.424,370.367 289,367.5C 288.576,364.975 287.41,362.975 285.5,361.5 Z"/></g>
<g><path style="opacity:0.856" fill="#000000" d="M 286.5,388.5 C 293.265,389.677 295.765,393.677 294,400.5C 289.959,405.313 285.625,405.646 281,401.5C 277.981,394.888 279.814,390.555 286.5,388.5 Z"/></g>
</svg>
