<?xml version="1.0" encoding="UTF-8"?>
<!DOCTYPE svg PUBLIC "-//W3C//DTD SVG 1.1//EN" "http://www.w3.org/Graphics/SVG/1.1/DTD/svg11.dtd">
<svg xmlns="http://www.w3.org/2000/svg" version="1.1" width="512px" height="512px" style="shape-rendering:geometricPrecision; text-rendering:geometricPrecision; image-rendering:optimizeQuality; fill-rule:evenodd; clip-rule:evenodd" xmlns:xlink="http://www.w3.org/1999/xlink">
<g><path style="opacity:0.918" fill="#000000" d="M 243.5,61.5 C 256.76,59.71 264.593,65.3767 267,78.5C 269.769,91.8473 272.603,105.181 275.5,118.5C 275.818,119.647 276.484,120.481 277.5,121C 282.02,122.965 286.687,123.965 291.5,124C 305.894,108.937 320.894,94.6039 336.5,81C 349.777,79.409 363.11,79.0757 376.5,80C 379.874,80.521 382.874,81.8543 385.5,84C 392.789,90.2825 398.956,97.4492 404,105.5C 404.925,111.471 404.425,117.305 402.5,123C 405.284,126.787 408.451,130.287 412,133.5C 414.271,136.12 414.938,139.12 414,142.5C 411.167,145.333 408.333,148.167 405.5,151C 407.08,153.295 409.08,154.628 411.5,155C 423.5,143 435.5,131 447.5,119C 453.5,115.667 459.5,115.667 465.5,119C 471.671,124.838 477.504,131.005 483,137.5C 486.941,143.684 487.274,150.017 484,156.5C 449.833,190.667 415.667,224.833 381.5,259C 374.667,262.481 368,262.147 361.5,258C 356.333,252.833 351.167,247.667 346,242.5C 341.807,235.703 341.474,228.703 345,221.5C 356.5,210 368,198.5 379.5,187C 377.983,185.315 376.316,183.815 374.5,182.5C 372.016,184.483 369.683,186.65 367.5,189C 364.5,191 361.5,191 358.5,189C 355.167,185.667 351.833,182.333 348.5,179C 344.909,178.55 342.409,180.05 341,183.5C 339.945,191.883 338.612,200.216 337,208.5C 270.926,263.786 204.759,318.952 138.5,374C 121.145,380.174 105.479,389.174 91.5,401C 79.9111,409.254 70.4111,419.421 63,431.5C 60.5512,437.563 57.7178,443.397 54.5,449C 50.1019,450.378 46.6019,449.212 44,445.5C 37.6667,435.167 31.3333,424.833 25,414.5C 22.8012,408.024 23.1345,401.691 26,395.5C 43,378.5 60,361.5 77,344.5C 78.4389,342.725 79.4389,340.725 80,338.5C 80.9977,331.533 81.6643,324.533 82,317.5C 122.178,261.811 162.845,206.478 204,151.5C 202.778,140.829 201.111,130.163 199,119.5C 198.161,114.079 198.494,108.746 200,103.5C 212.137,90.3623 224.637,77.5289 237.5,65C 239.432,63.5415 241.432,62.3748 243.5,61.5 Z M 247.5,75.5 C 248.822,75.33 249.989,75.6634 251,76.5C 253.952,89.4249 256.452,102.425 258.5,115.5C 256.801,115.34 255.134,115.506 253.5,116C 241.109,121.458 228.942,127.292 217,133.5C 214.905,125.606 213.905,117.606 214,109.5C 225.369,98.2984 236.535,86.9651 247.5,75.5 Z M 342.5,93.5 C 352.839,93.3335 363.172,93.5002 373.5,94C 380.098,98.7607 385.431,104.594 389.5,111.5C 389.281,112.938 388.781,114.271 388,115.5C 370.959,132.374 354.125,149.374 337.5,166.5C 325.833,155.5 314.5,144.167 303.5,132.5C 316.215,119.119 329.215,106.119 342.5,93.5 Z M 257.5,130.5 C 259.714,130.291 261.381,131.124 262.5,133C 263.563,137.483 264.563,141.983 265.5,146.5C 263.597,149.911 261.097,152.911 258,155.5C 250.605,175.043 257.105,187.043 277.5,191.5C 291.267,189.399 298.933,181.399 300.5,167.5C 299.556,154.226 292.556,146.892 279.5,145.5C 278.932,142.412 278.932,139.412 279.5,136.5C 282.07,137.634 284.736,138.468 287.5,139C 301,152.5 314.5,166 328,179.5C 328.336,186.979 327.502,194.313 325.5,201.5C 263.646,253.188 201.646,304.688 139.5,356C 138.833,356.667 138.167,356.667 137.5,356C 124.833,343.333 112.167,330.667 99.5,318C 142.256,259.822 185.256,201.822 228.5,144C 238.257,139.451 247.924,134.951 257.5,130.5 Z M 454.5,131.5 C 455.552,131.351 456.552,131.517 457.5,132C 462,136.5 466.5,141 471,145.5C 471.667,146.5 471.667,147.5 471,148.5C 438,181.5 405,214.5 372,247.5C 366.699,243.2 361.699,238.534 357,233.5C 356.333,232.167 356.333,230.833 357,229.5C 389.701,196.965 422.201,164.299 454.5,131.5 Z M 390.5,134.5 C 393.648,135.474 395.481,137.474 396,140.5C 385.5,151 375,161.5 364.5,172C 362.255,171.805 360.422,170.638 359,168.5C 358.333,167.833 358.333,167.167 359,166.5C 369.702,155.965 380.202,145.298 390.5,134.5 Z M 393.5,162.5 C 396.168,162.834 398.168,164.167 399.5,166.5C 396.516,169.985 393.349,173.318 390,176.5C 388.315,174.983 386.815,173.316 385.5,171.5C 388.189,168.48 390.856,165.48 393.5,162.5 Z M 211.5,218.5 C 223.086,218.348 228.253,224.014 227,235.5C 221.548,245.349 214.215,247.016 205,240.5C 199.187,230.774 201.354,223.44 211.5,218.5 Z M 96.5,337.5 C 105.812,346.146 114.812,355.146 123.5,364.5C 93.9566,378.921 69.6233,399.087 50.5,425C 47.7064,419.91 44.5397,415.077 41,410.5C 39.6986,408.635 39.3653,406.635 40,404.5C 56.3333,388.167 72.6667,371.833 89,355.5C 93.3499,350.287 95.8499,344.287 96.5,337.5 Z"/></g>
<g><path style="opacity:0.916" fill="#000000" d="M 211.5,203.5 C 234.694,205.232 244.527,217.566 241,240.5C 233.874,255.813 222.041,261.646 205.5,258C 189.217,250.266 183.717,237.766 189,220.5C 193.838,211.144 201.338,205.478 211.5,203.5 Z M 211.5,218.5 C 201.354,223.44 199.187,230.774 205,240.5C 214.215,247.016 221.548,245.349 227,235.5C 228.253,224.014 223.086,218.348 211.5,218.5 Z"/></g>
</svg>
