<?xml version="1.0" encoding="UTF-8"?>
<!DOCTYPE svg PUBLIC "-//W3C//DTD SVG 1.1//EN" "http://www.w3.org/Graphics/SVG/1.1/DTD/svg11.dtd">
<svg xmlns="http://www.w3.org/2000/svg" version="1.1" width="512px" height="512px" style="shape-rendering:geometricPrecision; text-rendering:geometricPrecision; image-rendering:optimizeQuality; fill-rule:evenodd; clip-rule:evenodd" xmlns:xlink="http://www.w3.org/1999/xlink">
<g><path style="opacity:0.872" fill="#000000" d="M 371.5,13.5 C 378.358,12.7142 383.191,15.3809 386,21.5C 400.702,65.9402 415.202,110.44 429.5,155C 429.172,160 426.838,163.667 422.5,166C 411.303,170.011 399.97,173.511 388.5,176.5C 386.077,176.406 383.744,175.906 381.5,175C 371.57,167.388 361.404,160.222 351,153.5C 300.776,168.13 250.61,182.963 200.5,198C 210.031,211.143 213.198,225.643 210,241.5C 208.455,244.293 206.288,244.96 203.5,243.5C 203.093,235.362 202.593,227.362 202,219.5C 199.456,213.41 196.623,207.41 193.5,201.5C 190.614,201.29 187.614,201.123 184.5,201C 182.695,200.028 181.028,198.861 179.5,197.5C 176.204,198.765 172.871,199.932 169.5,201C 175.271,213.578 177.771,226.745 177,240.5C 170.855,252.79 164.188,264.79 157,276.5C 150.749,289.588 145.082,302.921 140,316.5C 135.65,332.238 131.15,347.905 126.5,363.5C 119.884,364.628 113.218,364.795 106.5,364C 105.57,362.806 104.903,361.473 104.5,360C 107.298,338.451 110.465,316.951 114,295.5C 118.866,276.069 125.032,257.069 132.5,238.5C 129.516,235.015 126.349,231.682 123,228.5C 122.449,223.455 122.782,218.455 124,213.5C 128.735,211.773 133.568,210.273 138.5,209C 139.697,205.939 139.197,203.105 137,200.5C 122.983,204.214 108.816,207.047 94.5,209C 90.8069,200.421 87.8069,191.588 85.5,182.5C 85.8333,181.5 86.1667,180.5 86.5,179.5C 99.5293,173.902 112.363,167.902 125,161.5C 123.836,155.511 122.336,149.511 120.5,143.5C 120.486,141.407 121.152,139.574 122.5,138C 129.149,135.228 135.982,133.061 143,131.5C 147.975,131.753 150.475,134.42 150.5,139.5C 153.5,138.833 156.5,138.167 159.5,137.5C 159.682,135.409 159.348,133.409 158.5,131.5C 159.066,128.183 160.733,125.683 163.5,124C 216.5,104.833 269.5,85.6667 322.5,66.5C 326.898,53.472 331.398,40.472 336,27.5C 338.251,25.6227 340.751,24.1227 343.5,23C 353.106,20.2987 362.439,17.132 371.5,13.5 Z M 373.5,21.5 C 375.17,21.7512 376.67,22.4178 378,23.5C 379.975,29.7587 382.141,35.9253 384.5,42C 379.538,43.9317 374.538,45.765 369.5,47.5C 366.733,40.3648 364.066,33.1981 361.5,26C 365.715,24.7659 369.715,23.2659 373.5,21.5 Z M 351.5,28.5 C 352.5,28.5 353.5,28.5 354.5,28.5C 369.201,74.1026 384.201,119.603 399.5,165C 395.292,166.854 390.959,167.854 386.5,168C 376.5,160.667 366.5,153.333 356.5,146C 355.127,145.125 353.627,144.625 352,144.5C 297.249,160.64 242.582,176.973 188,193.5C 180.5,173.003 173.834,152.337 168,131.5C 221.407,111.808 274.907,92.3082 328.5,73C 333.576,60.1066 338.076,46.94 342,33.5C 344.995,31.3475 348.162,29.6808 351.5,28.5 Z M 384.5,50.5 C 385.5,50.5 386.5,50.5 387.5,50.5C 389.5,57.5 391.5,64.5 393.5,71.5C 388.929,72.5229 384.429,73.8562 380,75.5C 379.228,75.3552 378.561,75.0219 378,74.5C 376.025,68.2413 373.859,62.0747 371.5,56C 375.859,54.0526 380.192,52.2193 384.5,50.5 Z M 395.5,78.5 C 398.496,84.6461 400.829,91.1461 402.5,98C 402.355,98.772 402.022,99.4387 401.5,100C 397.129,101.401 392.796,102.901 388.5,104.5C 385.885,98.1585 383.552,91.6585 381.5,85C 385.957,82.3493 390.623,80.1827 395.5,78.5 Z M 403.5,107.5 C 404.496,107.414 405.329,107.748 406,108.5C 408.068,114.871 410.235,121.204 412.5,127.5C 407.411,129.974 402.078,131.641 396.5,132.5C 394.908,126.057 392.908,119.724 390.5,113.5C 394.659,111.114 398.992,109.114 403.5,107.5 Z M 414.5,135.5 C 417.099,141.788 419.432,148.288 421.5,155C 421.241,156.261 420.574,157.261 419.5,158C 415.539,159.598 411.539,161.098 407.5,162.5C 404.733,155.365 402.066,148.198 399.5,141C 404.714,139.432 409.714,137.599 414.5,135.5 Z M 141.5,139.5 C 150.794,166.888 159.628,194.555 168,222.5C 169.439,227.762 169.772,233.096 169,238.5C 163.766,248.737 158.1,258.737 152,268.5C 137.702,296.06 127.368,325.06 121,355.5C 118.619,356.435 116.119,356.768 113.5,356.5C 115.687,328.687 120.521,301.354 128,274.5C 132.701,262.063 137.201,249.563 141.5,237C 141.333,236.167 141.167,235.333 141,234.5C 136.91,230.917 133.41,226.917 130.5,222.5C 130.59,220.575 131.59,219.408 133.5,219C 138.167,217.667 142.833,216.333 147.5,215C 148.43,213.806 149.097,212.473 149.5,211C 142.129,188.68 135.463,166.18 129.5,143.5C 133.784,142.739 137.784,141.405 141.5,139.5 Z M 161.5,144.5 C 162.117,144.611 162.617,144.944 163,145.5C 167.735,159.87 172.568,174.204 177.5,188.5C 174.56,190.437 171.394,192.104 168,193.5C 163.013,178.553 158.18,163.553 153.5,148.5C 156.148,146.962 158.815,145.628 161.5,144.5 Z"/></g>
<g><path style="opacity:0.917" fill="#000000" d="M 283.5,179.5 C 286.885,178.79 289.219,179.956 290.5,183C 285.036,191.39 281.536,200.557 280,210.5C 275.964,267.434 278.464,324.101 287.5,380.5C 287.143,388.514 283.143,393.514 275.5,395.5C 275.667,414.17 275.5,432.836 275,451.5C 274.163,453.844 272.829,455.844 271,457.5C 270.667,470.833 270.333,484.167 270,497.5C 267.667,500.167 265.333,500.167 263,497.5C 262.5,484.504 262.333,471.504 262.5,458.5C 249.5,458.5 236.5,458.5 223.5,458.5C 223.667,471.837 223.5,485.171 223,498.5C 221,499.833 219,499.833 217,498.5C 215.702,484.927 215.035,471.261 215,457.5C 211.094,453.688 209.594,449.021 210.5,443.5C 206.167,443.5 201.833,443.5 197.5,443.5C 197.665,446.85 197.498,450.183 197,453.5C 196.417,455.002 195.584,456.335 194.5,457.5C 186.883,458.633 179.216,458.8 171.5,458C 170.667,457.167 169.833,456.333 169,455.5C 168.333,434.5 168.333,413.5 169,392.5C 169.374,391.584 169.874,390.75 170.5,390C 174.384,388.903 178.384,388.403 182.5,388.5C 195.006,386.675 200.006,392.008 197.5,404.5C 201.833,404.5 206.167,404.5 210.5,404.5C 210.5,401.5 210.5,398.5 210.5,395.5C 201.747,393.235 197.914,387.569 199,378.5C 201.333,375.833 203.667,375.833 206,378.5C 206.363,382.953 208.529,386.12 212.5,388C 232.833,388.667 253.167,388.667 273.5,388C 276,386.833 277.833,385 279,382.5C 276.673,359.875 274.339,337.208 272,314.5C 268.487,277.456 268.821,240.456 273,203.5C 275.151,194.868 278.651,186.868 283.5,179.5 Z M 197.5,412.5 C 201.833,412.5 206.167,412.5 210.5,412.5C 210.5,420.167 210.5,427.833 210.5,435.5C 206.167,435.5 201.833,435.5 197.5,435.5C 197.5,427.833 197.5,420.167 197.5,412.5 Z M 266.5,418.5 C 267.829,428.902 267.829,439.402 266.5,450C 250.833,450.667 235.167,450.667 219.5,450C 218.544,446.606 218.211,443.106 218.5,439.5C 236.698,442.381 251.864,437.047 264,423.5C 265.094,421.922 265.928,420.255 266.5,418.5 Z M 188.5,434.5 C 189.488,439.64 189.821,444.974 189.5,450.5C 185.167,450.5 180.833,450.5 176.5,450.5C 176.5,446.5 176.5,442.5 176.5,438.5C 181.207,438.931 185.207,437.598 188.5,434.5 Z"/></g>
<g><path style="opacity:0.965" fill="#000000" d="M 201.5,251.5 C 203.199,251.34 204.866,251.506 206.5,252C 218.696,264.53 231.196,276.696 244,288.5C 246.15,291.281 247.316,294.447 247.5,298C 243.841,318.96 239.675,339.793 235,360.5C 233.337,362.917 231.171,364.75 228.5,366C 220.715,367.452 212.882,368.619 205,369.5C 202.648,369.695 200.648,369.028 199,367.5C 196.523,328.76 197.357,290.093 201.5,251.5 Z"/></g>
</svg>
