<?xml version="1.0" encoding="UTF-8"?>
<!DOCTYPE svg PUBLIC "-//W3C//DTD SVG 1.1//EN" "http://www.w3.org/Graphics/SVG/1.1/DTD/svg11.dtd">
<svg xmlns="http://www.w3.org/2000/svg" version="1.1" width="512px" height="512px" style="shape-rendering:geometricPrecision; text-rendering:geometricPrecision; image-rendering:optimizeQuality; fill-rule:evenodd; clip-rule:evenodd" xmlns:xlink="http://www.w3.org/1999/xlink">
<g><path style="opacity:0.937" fill="#000000" d="M 184.5,-0.5 C 189.167,-0.5 193.833,-0.5 198.5,-0.5C 216.294,7.70046 220.96,20.8671 212.5,39C 215.786,44.4023 218.953,49.9023 222,55.5C 222.502,63.6531 218.669,66.8198 210.5,65C 206.051,59.9366 202.217,54.4366 199,48.5C 159.082,73.8752 119.249,99.3752 79.5,125C 91.6667,143.833 103.833,162.667 116,181.5C 141.564,207.812 171.064,213.312 204.5,198C 232.026,180.778 243.859,155.944 240,123.5C 239.074,118.721 237.741,114.054 236,109.5C 231.172,99.841 225.839,90.5077 220,81.5C 218.782,73.3846 222.282,69.8846 230.5,71C 258.991,102.81 264.491,138.31 247,177.5C 243.865,182.943 240.365,188.11 236.5,193C 245.225,208.223 254.558,223.056 264.5,237.5C 270.481,239.155 275.481,242.322 279.5,247C 289.167,247.667 298.833,247.667 308.5,247C 311.841,242.002 316.508,239.002 322.5,238C 332.167,237.333 341.833,237.333 351.5,238C 364.344,242.19 370.344,251.023 369.5,264.5C 376.841,264.334 384.174,264.5 391.5,265C 408.552,271.278 413.385,282.778 406,299.5C 403.575,303.134 400.408,305.968 396.5,308C 387.582,309.414 378.582,309.914 369.5,309.5C 370.762,322.816 365.095,331.649 352.5,336C 339.956,338.445 327.623,337.778 315.5,334C 309.948,327.548 302.782,325.048 294,326.5C 289.167,326.667 284.333,326.833 279.5,327C 276.744,330.427 273.41,333.093 269.5,335C 261.602,336.761 253.602,337.928 245.5,338.5C 246.105,360.48 252.605,380.48 265,398.5C 269.96,416.085 263.793,427.585 246.5,433C 239.676,434.044 233.343,432.711 227.5,429C 210.699,409.292 200.865,386.458 198,360.5C 196.858,352.875 196.358,345.208 196.5,337.5C 192.818,337.335 189.152,337.501 185.5,338C 178.174,348.816 172.007,360.316 167,372.5C 164.089,376.277 160.256,377.444 155.5,376C 153.236,374.221 151.903,371.887 151.5,369C 155.561,358.044 160.561,347.544 166.5,337.5C 147.178,336.5 127.845,336.167 108.5,336.5C 89.9318,377.276 79.9318,420.11 78.5,465C 77.5977,478.202 82.9311,487.869 94.5,494C 110.769,498.385 122.269,492.885 129,477.5C 129.461,446.734 134.461,416.734 144,387.5C 147.983,382.676 152.317,382.343 157,386.5C 157.985,388.366 158.485,390.366 158.5,392.5C 150.524,418.218 146.357,444.551 146,471.5C 144.12,492.205 133.287,505.538 113.5,511.5C 107.5,511.5 101.5,511.5 95.5,511.5C 77.1351,505.958 66.3018,493.625 63,474.5C 62.1359,426.486 71.6359,380.653 91.5,337C 76.1874,334.19 68.8541,325.023 69.5,309.5C 61.8333,309.5 54.1667,309.5 46.5,309.5C 42.1827,325.665 31.8494,331.498 15.5,327C 9.66667,324.5 5.5,320.333 3,314.5C 1.89049,305.391 1.39049,296.224 1.5,287C 1.66667,279.167 1.83333,271.333 2,263.5C 7.66003,247.609 18.4934,242.442 34.5,248C 41.3096,251.451 45.3096,256.951 46.5,264.5C 54.1667,264.5 61.8333,264.5 69.5,264.5C 68.6795,250.96 74.6795,242.127 87.5,238C 126.5,237.667 165.5,237.333 204.5,237C 200.791,231.081 196.958,225.248 193,219.5C 155.311,228.159 124.311,217.493 100,187.5C 88.6667,169.5 77.3333,151.5 66,133.5C 64.3308,131.279 62.3308,130.945 60,132.5C 41.0413,129.611 33.0413,118.611 36,99.5C 39.0795,91.4195 44.5795,85.5862 52.5,82C 65.8333,73.6667 79.1667,65.3333 92.5,57C 83.1719,47.6586 81.0052,36.8253 86,24.5C 95.4186,11.9449 107.252,9.11159 121.5,16C 126.884,19.8936 130.55,25.0603 132.5,31.5C 149.897,20.808 167.231,10.1414 184.5,-0.5 Z M 188.5,15.5 C 197.161,14.3293 200.994,17.9959 200,26.5C 198.878,28.6238 197.378,30.4571 195.5,32C 150.633,60.3645 105.633,88.5312 60.5,116.5C 51.7629,114.194 49.4296,109.027 53.5,101C 98.5644,72.4754 143.564,43.9754 188.5,15.5 Z M 104.5,28.5 C 116.17,28.6747 119.17,33.8414 113.5,44C 103.426,47.5533 98.9261,44.0533 100,33.5C 101.025,31.313 102.525,29.6464 104.5,28.5 Z M 223.5,204.5 C 230.6,215.183 237.6,226.017 244.5,237C 237.476,237.831 230.476,237.664 223.5,236.5C 218.833,229.167 214.167,221.833 209.5,214.5C 214.463,211.53 219.13,208.196 223.5,204.5 Z M 90.5,253.5 C 147.834,253.333 205.168,253.5 262.5,254C 264.667,254.833 266.167,256.333 267,258.5C 267.204,274.354 267.704,290.188 268.5,306C 267.877,309.481 267.377,312.981 267,316.5C 265.238,319.268 262.738,320.768 259.5,321C 202.788,321.984 146.122,321.65 89.5,320C 88.3333,318.833 87.1667,317.667 86,316.5C 85.3333,297.167 85.3333,277.833 86,258.5C 87.025,256.313 88.525,254.646 90.5,253.5 Z M 324.5,253.5 C 332.507,253.334 340.507,253.5 348.5,254C 352.692,256.22 354.359,259.72 353.5,264.5C 342.167,264.5 330.833,264.5 319.5,264.5C 319.296,259.912 320.963,256.245 324.5,253.5 Z M 22.5,261.5 C 27.558,261.114 30.3914,263.448 31,268.5C 31.6667,281.167 31.6667,293.833 31,306.5C 29.7895,311.71 26.6228,313.544 21.5,312C 19.9512,310.786 18.7845,309.286 18,307.5C 17.3333,293.833 17.3333,280.167 18,266.5C 19.025,264.313 20.525,262.646 22.5,261.5 Z M 283.5,263.5 C 290.167,263.5 296.833,263.5 303.5,263.5C 303.5,279.167 303.5,294.833 303.5,310.5C 296.833,310.5 290.167,310.5 283.5,310.5C 283.5,294.833 283.5,279.167 283.5,263.5 Z M 47.5,280.5 C 54.8333,280.5 62.1667,280.5 69.5,280.5C 69.5,284.833 69.5,289.167 69.5,293.5C 62.1667,293.5 54.8333,293.5 47.5,293.5C 47.5,289.167 47.5,284.833 47.5,280.5 Z M 319.5,280.5 C 330.833,280.5 342.167,280.5 353.5,280.5C 353.5,284.833 353.5,289.167 353.5,293.5C 342.167,293.5 330.833,293.5 319.5,293.5C 319.5,289.167 319.5,284.833 319.5,280.5 Z M 369.5,280.5 C 376.175,280.334 382.842,280.5 389.5,281C 394.804,285.098 394.804,289.098 389.5,293C 382.842,293.5 376.175,293.666 369.5,293.5C 369.5,289.167 369.5,284.833 369.5,280.5 Z M 319.5,309.5 C 330.833,309.5 342.167,309.5 353.5,309.5C 354.382,313.909 353.048,317.409 349.5,320C 340.359,322.288 331.359,321.954 322.5,319C 319.971,316.358 318.971,313.192 319.5,309.5 Z M 212.5,336.5 C 218.167,336.5 223.833,336.5 229.5,336.5C 229.531,361.307 236.364,383.974 250,404.5C 252.134,411.912 249.467,416.246 242,417.5C 239.077,417.205 236.743,415.871 235,413.5C 219.53,390.248 212.03,364.581 212.5,336.5 Z"/></g>
<g><path style="opacity:0.917" fill="#000000" d="M 490.5,222.5 C 498.197,223.033 501.03,227.033 499,234.5C 497.833,235.667 496.667,236.833 495.5,238C 474.384,246.725 453.384,255.725 432.5,265C 425.65,267.078 421.317,264.745 419.5,258C 419.958,255.169 421.292,252.836 423.5,251C 445.933,241.442 468.266,231.942 490.5,222.5 Z"/></g>
<g><path style="opacity:0.926" fill="#000000" d="M 428.5,279.5 C 454.169,279.333 479.835,279.5 505.5,280C 511.421,286.395 510.421,291.395 502.5,295C 478.5,295.667 454.5,295.667 430.5,295C 426.384,293.884 424.051,291.218 423.5,287C 424.324,283.827 425.991,281.327 428.5,279.5 Z"/></g>
<g><path style="opacity:0.916" fill="#000000" d="M 424.5,308.5 C 426.857,308.337 429.19,308.503 431.5,309C 453.283,318.058 474.95,327.391 496.5,337C 499.394,339.909 500.227,343.409 499,347.5C 496.588,350.792 493.421,351.959 489.5,351C 467.337,342.056 445.337,332.723 423.5,323C 418.395,317.885 418.728,313.052 424.5,308.5 Z"/></g>
</svg>
