<?xml version="1.0" encoding="UTF-8"?>
<!DOCTYPE svg PUBLIC "-//W3C//DTD SVG 1.1//EN" "http://www.w3.org/Graphics/SVG/1.1/DTD/svg11.dtd">
<svg xmlns="http://www.w3.org/2000/svg" version="1.1" width="512px" height="512px" style="shape-rendering:geometricPrecision; text-rendering:geometricPrecision; image-rendering:optimizeQuality; fill-rule:evenodd; clip-rule:evenodd" xmlns:xlink="http://www.w3.org/1999/xlink">
<g><path style="opacity:0.936" fill="#000000" d="M 245.5,20.5 C 258.806,19.4686 263.139,25.1353 258.5,37.5C 247.5,45 236.5,52.5 225.5,60C 216.598,62.5565 211.598,59.3898 210.5,50.5C 210.321,47.8688 210.987,45.5355 212.5,43.5C 223.741,36.0574 234.741,28.3907 245.5,20.5 Z"/></g>
<g><path style="opacity:0.994" fill="#000000" d="M 65.5,30.5 C 88.8357,30.3334 112.169,30.5 135.5,31C 137.333,32.1667 138.833,33.6667 140,35.5C 140.499,40.4889 140.666,45.4889 140.5,50.5C 152.171,50.3335 163.838,50.5001 175.5,51C 177.333,52.1667 178.833,53.6667 180,55.5C 180.667,72.1667 180.667,88.8333 180,105.5C 178.833,107.333 177.333,108.833 175.5,110C 163.838,110.5 152.171,110.667 140.5,110.5C 140.5,117.167 140.5,123.833 140.5,130.5C 150.172,130.334 159.839,130.5 169.5,131C 185.667,135.167 195.833,145.333 200,161.5C 200.667,260.833 200.667,360.167 200,459.5C 196.44,474.061 187.606,483.894 173.5,489C 149.214,490.147 124.881,490.647 100.5,490.5C 76.119,490.647 51.7857,490.147 27.5,489C 13.3937,483.894 4.56037,474.061 1,459.5C 0.333333,360.167 0.333333,260.833 1,161.5C 5.16667,145.333 15.3333,135.167 31.5,131C 41.1609,130.5 50.8276,130.334 60.5,130.5C 60.3334,98.8316 60.5,67.1649 61,35.5C 62.3657,33.6383 63.8657,31.9717 65.5,30.5 Z M 80.5,50.5 C 93.8333,50.5 107.167,50.5 120.5,50.5C 120.5,77.1667 120.5,103.833 120.5,130.5C 107.167,130.5 93.8333,130.5 80.5,130.5C 80.5,103.833 80.5,77.1667 80.5,50.5 Z M 140.5,70.5 C 147.167,70.5 153.833,70.5 160.5,70.5C 160.5,77.1667 160.5,83.8333 160.5,90.5C 153.833,90.5 147.167,90.5 140.5,90.5C 140.5,83.8333 140.5,77.1667 140.5,70.5 Z M 40.5,150.5 C 82.534,150.034 124.534,150.534 166.5,152C 172.667,154.167 176.833,158.333 179,164.5C 180.095,169.78 180.595,175.113 180.5,180.5C 127.167,180.5 73.8333,180.5 20.5,180.5C 19.3172,170.683 21.9839,162.183 28.5,155C 32.3011,152.584 36.3011,151.084 40.5,150.5 Z M 20.5,200.5 C 73.8333,200.5 127.167,200.5 180.5,200.5C 180.5,210.5 180.5,220.5 180.5,230.5C 165.496,230.333 150.496,230.5 135.5,231C 133.667,232.167 132.167,233.667 131,235.5C 130.333,302.167 130.333,368.833 131,435.5C 132.167,437.333 133.667,438.833 135.5,440C 150.496,440.5 165.496,440.667 180.5,440.5C 181.037,448.286 179.537,455.619 176,462.5C 173.441,465.531 170.274,467.698 166.5,469C 144.535,470.133 122.535,470.633 100.5,470.5C 78.4653,470.633 56.4653,470.133 34.5,469C 28.3333,466.833 24.1667,462.667 22,456.5C 20.9054,451.22 20.4054,445.887 20.5,440.5C 35.5037,440.667 50.5037,440.5 65.5,440C 67.3333,438.833 68.8333,437.333 70,435.5C 70.6667,368.833 70.6667,302.167 70,235.5C 68.8333,233.667 67.3333,232.167 65.5,231C 50.5037,230.5 35.5037,230.333 20.5,230.5C 20.5,220.5 20.5,210.5 20.5,200.5 Z"/></g>
<g><path style="opacity:0.956" fill="#000000" d="M 479.5,40.5 C 488.173,40.3336 496.84,40.5002 505.5,41C 507.333,42.1667 508.833,43.6667 510,45.5C 510.667,192.167 510.667,338.833 510,485.5C 508.833,487.333 507.333,488.833 505.5,490C 428.888,490.94 367.054,461.44 320,401.5C 276.068,339.577 264.401,271.911 285,198.5C 309.833,124.333 359.333,74.8333 433.5,50C 448.727,45.6342 464.06,42.4676 479.5,40.5 Z M 480.5,61.5 C 483.833,61.5 487.167,61.5 490.5,61.5C 490.5,74.5 490.5,87.5 490.5,100.5C 421.677,107.307 373.51,142.307 346,205.5C 324.02,270.209 335.353,328.209 380,379.5C 410.288,410.39 447.121,427.39 490.5,430.5C 490.5,443.5 490.5,456.5 490.5,469.5C 418.604,464.036 363.437,431.036 325,370.5C 293.328,315.092 287.661,257.092 308,196.5C 332.635,133.865 376.801,91.6986 440.5,70C 453.764,66.1843 467.097,63.351 480.5,61.5 Z M 484.5,121.5 C 486.5,121.5 488.5,121.5 490.5,121.5C 490.5,141.167 490.5,160.833 490.5,180.5C 466.512,183.989 446.845,194.989 431.5,213.5C 414.669,203.919 398.002,194.085 381.5,184C 407.156,148.84 441.489,128.006 484.5,121.5 Z M 489.5,201.5 C 490.665,243.998 490.831,286.665 490,329.5C 452.051,318.878 434.384,293.878 437,254.5C 444.019,226.315 461.519,208.649 489.5,201.5 Z M 369.5,203.5 C 387.282,212.264 404.616,221.931 421.5,232.5C 412.637,254.398 412.637,276.398 421.5,298.5C 404.616,309.069 387.282,318.736 369.5,327.5C 356.377,298.162 352.877,267.828 359,236.5C 361.61,225.172 365.11,214.172 369.5,203.5 Z M 430.5,317.5 C 436.036,322.652 441.702,327.819 447.5,333C 460.234,342.698 474.567,348.532 490.5,350.5C 490.5,370.167 490.5,389.833 490.5,409.5C 444.547,405.197 408.214,384.364 381.5,347C 397.897,337.141 414.23,327.308 430.5,317.5 Z"/></g>
<g><path style="opacity:0.976" fill="#000000" d="M 245.5,70.5 C 265.503,70.3334 285.503,70.5 305.5,71C 310.275,74.6551 311.775,79.4884 310,85.5C 308.833,87.3333 307.333,88.8333 305.5,90C 285.5,90.6667 265.5,90.6667 245.5,90C 240.725,86.3449 239.225,81.5116 241,75.5C 242.366,73.6383 243.866,71.9717 245.5,70.5 Z"/></g>
<g><path style="opacity:0.936" fill="#000000" d="M 215.5,100.5 C 218.85,100.335 222.183,100.502 225.5,101C 237.477,108.565 248.977,116.732 260,125.5C 262.167,137.333 257.333,142.167 245.5,140C 233.523,132.435 222.023,124.268 211,115.5C 209.254,109.342 210.754,104.342 215.5,100.5 Z"/></g>
</svg>
