<?xml version="1.0" encoding="UTF-8"?>
<!DOCTYPE svg PUBLIC "-//W3C//DTD SVG 1.1//EN" "http://www.w3.org/Graphics/SVG/1.1/DTD/svg11.dtd">
<svg xmlns="http://www.w3.org/2000/svg" version="1.1" width="512px" height="512px" style="shape-rendering:geometricPrecision; text-rendering:geometricPrecision; image-rendering:optimizeQuality; fill-rule:evenodd; clip-rule:evenodd" xmlns:xlink="http://www.w3.org/1999/xlink">
<g><path style="opacity:0.977" fill="#000000" d="M 51.5,47.5 C 87.5015,47.3333 123.502,47.5 159.5,48C 169.448,50.9493 176.615,57.1159 181,66.5C 195.353,104.398 210.186,142.065 225.5,179.5C 231.634,175.864 237.634,172.031 243.5,168C 254.497,166.464 257.997,170.964 254,181.5C 247.08,186.043 240.247,190.71 233.5,195.5C 238.667,205.833 243.833,216.167 249,226.5C 251.817,233.616 253.817,240.95 255,248.5C 255.667,316.833 255.667,385.167 255,453.5C 253.167,458 250,461.167 245.5,463C 230.833,463.667 216.167,463.667 201.5,463C 197,461.167 193.833,458 192,453.5C 191.5,443.506 191.334,433.506 191.5,423.5C 144.832,423.667 98.1655,423.5 51.5,423C 49.6667,422.5 48.5,421.333 48,419.5C 47.3333,296.833 47.3333,174.167 48,51.5C 48.6897,49.6498 49.8564,48.3164 51.5,47.5 Z M 63.5,63.5 C 92.8352,63.3334 122.169,63.5 151.5,64C 156.055,64.361 159.888,66.1943 163,69.5C 178.221,106.61 192.888,143.943 207,181.5C 217.211,201.256 226.878,221.256 236,241.5C 237.777,248.047 238.777,254.714 239,261.5C 239.833,303.171 239.667,344.837 238.5,386.5C 225.308,393.764 211.641,399.93 197.5,405C 192.215,406.026 186.882,406.693 181.5,407C 142.168,407.5 102.835,407.667 63.5,407.5C 63.5,396.833 63.5,386.167 63.5,375.5C 91.502,375.667 119.502,375.5 147.5,375C 150.43,372.88 152.263,370.047 153,366.5C 161.107,345.842 168.607,325.008 175.5,304C 176,300.332 174.666,297.666 171.5,296C 135.502,295.5 99.5015,295.333 63.5,295.5C 63.5,268.833 63.5,242.167 63.5,215.5C 104.168,215.667 144.835,215.5 185.5,215C 192.228,212.057 195.894,206.89 196.5,199.5C 182.844,162.517 168.344,125.851 153,89.5C 149.586,84.7475 145.086,81.5809 139.5,80C 114.169,79.5 88.8355,79.3334 63.5,79.5C 63.5,74.1667 63.5,68.8333 63.5,63.5 Z M 63.5,95.5 C 87.8853,95.0392 112.219,95.5392 136.5,97C 138.049,98.214 139.215,99.714 140,101.5C 153.13,134.087 165.963,166.753 178.5,199.5C 140.167,199.5 101.833,199.5 63.5,199.5C 63.5,164.833 63.5,130.167 63.5,95.5 Z M 63.5,311.5 C 94.1685,311.333 124.835,311.5 155.5,312C 149.093,327.318 143.093,342.818 137.5,358.5C 112.842,359.5 88.1757,359.833 63.5,359.5C 63.5,343.5 63.5,327.5 63.5,311.5 Z M 199.5,328.5 C 210.318,327.817 215.151,332.817 214,343.5C 210.96,349.603 206.126,351.769 199.5,350C 193.397,346.96 191.231,342.126 193,335.5C 194.694,332.642 196.861,330.309 199.5,328.5 Z M 237.5,405.5 C 239.482,419.127 240.149,433.127 239.5,447.5C 228.833,447.5 218.167,447.5 207.5,447.5C 207.5,438.167 207.5,428.833 207.5,419.5C 218.04,415.896 228.04,411.229 237.5,405.5 Z"/></g>
<g><path style="opacity:0.987" fill="#000000" d="M 280.5,111.5 C 288.917,111.094 297.251,111.594 305.5,113C 312.313,116.478 316.98,121.812 319.5,129C 327.25,131.249 334.75,134.082 342,137.5C 343.473,155.406 343.973,173.406 343.5,191.5C 346.167,191.5 348.833,191.5 351.5,191.5C 351.051,181.395 351.551,171.395 353,161.5C 353.75,160.874 354.584,160.374 355.5,160C 362.158,159.5 368.825,159.334 375.5,159.5C 372.705,144.248 378.372,133.748 392.5,128C 410.5,127.333 428.5,127.333 446.5,128C 454.667,130.833 460.167,136.333 463,144.5C 463.667,164.833 463.667,185.167 463,205.5C 461.636,208.363 459.47,210.363 456.5,211.5C 455.667,263.163 455.167,314.83 455,366.5C 452.453,373.882 447.62,379.215 440.5,382.5C 439.667,408.16 439.167,433.827 439,459.5C 438.626,460.416 438.126,461.25 437.5,462C 434.298,463.483 430.964,463.817 427.5,463C 425.667,462.5 424.5,461.333 424,459.5C 423.5,434.169 423.333,408.836 423.5,383.5C 418.167,383.5 412.833,383.5 407.5,383.5C 407.667,408.836 407.5,434.169 407,459.5C 405.471,462.516 402.971,463.849 399.5,463.5C 396.029,463.849 393.529,462.516 392,459.5C 391.833,433.827 391.333,408.16 390.5,382.5C 383.38,379.215 378.547,373.882 376,366.5C 375.5,332.168 375.333,297.835 375.5,263.5C 368.825,263.666 362.158,263.5 355.5,263C 354.584,262.626 353.75,262.126 353,261.5C 351.551,251.605 351.051,241.605 351.5,231.5C 348.833,231.5 346.167,231.5 343.5,231.5C 343.667,248.837 343.5,266.17 343,283.5C 342.626,284.416 342.126,285.25 341.5,286C 334.32,289.06 326.986,291.727 319.5,294C 316.5,302.333 310.833,308 302.5,311C 295.167,311.667 287.833,311.667 280.5,311C 272.333,308.167 266.833,302.667 264,294.5C 263.333,239.167 263.333,183.833 264,128.5C 267.019,120.316 272.519,114.649 280.5,111.5 Z M 287.5,127.5 C 292.08,127.113 296.414,127.947 300.5,130C 301.717,131.648 302.55,133.481 303,135.5C 303.667,186.167 303.667,236.833 303,287.5C 301.44,293.212 297.607,295.879 291.5,295.5C 285.393,295.879 281.56,293.212 280,287.5C 279.333,236.833 279.333,186.167 280,135.5C 280.68,130.989 283.18,128.323 287.5,127.5 Z M 399.5,143.5 C 412.837,143.333 426.171,143.5 439.5,144C 444,144.5 446.5,147 447,151.5C 447.833,166.511 447.666,181.511 446.5,196.5C 443.53,197.637 441.364,199.637 440,202.5C 439.667,254.833 439.333,307.167 439,359.5C 438.5,364 436,366.5 431.5,367C 420.833,367.667 410.167,367.667 399.5,367C 395,366.5 392.5,364 392,359.5C 391.333,290.167 391.333,220.833 392,151.5C 392.68,146.989 395.18,144.323 399.5,143.5 Z M 319.5,147.5 C 322.112,148.371 324.779,149.037 327.5,149.5C 327.5,190.833 327.5,232.167 327.5,273.5C 325.063,273.756 322.729,274.423 320.5,275.5C 319.5,232.839 319.167,190.172 319.5,147.5 Z M 367.5,175.5 C 370.167,175.5 372.833,175.5 375.5,175.5C 375.5,199.5 375.5,223.5 375.5,247.5C 372.833,247.5 370.167,247.5 367.5,247.5C 367.5,223.5 367.5,199.5 367.5,175.5 Z M 343.5,207.5 C 346.167,207.5 348.833,207.5 351.5,207.5C 351.5,210.167 351.5,212.833 351.5,215.5C 348.833,215.5 346.167,215.5 343.5,215.5C 343.5,212.833 343.5,210.167 343.5,207.5 Z"/></g>
<g><path style="opacity:0.927" fill="#000000" d="M 195.5,311.5 C 221.312,309.812 233.145,321.812 231,347.5C 224.671,363.752 212.838,370.252 195.5,367C 179.248,360.671 172.748,348.838 176,331.5C 179.351,321.65 185.851,314.983 195.5,311.5 Z M 199.5,328.5 C 196.861,330.309 194.694,332.642 193,335.5C 191.231,342.126 193.397,346.96 199.5,350C 206.126,351.769 210.96,349.603 214,343.5C 215.151,332.817 210.318,327.817 199.5,328.5 Z"/></g>
</svg>
